HIERARCHY
ROOT Hips
{
	OFFSET -0.179506 -22.333345 2.821913
	CHANNELS 6 Xposition Yposition Zposition Zrotation Yrotation Xrotation 
	JOINT LeftUpLeg
	{
		OFFSET 6.951974 -9.140623 -0.681533
		CHANNELS 3 Zrotation Yrotation Xrotation
		JOINT LeftLeg
		{
			OFFSET 3.427654 -37.519855 -0.449580
			CHANNELS 3 Zrotation Yrotation Xrotation
			JOINT LeftFoot
			{
				OFFSET -1.359570 -39.796059 -4.369333
				CHANNELS 3 Zrotation Yrotation Xrotation
				JOINT LeftToe
				{
					OFFSET 2.635814 -5.579078 11.928840
					CHANNELS 3 Zrotation Yrotation Xrotation
					End Site
					{
						OFFSET 0.000000 0.000000 0.000000
					}
				}
			}
		}
	}
	JOINT RightUpLeg
	{
		OFFSET -6.767048 -9.052170 -0.431982
		CHANNELS 3 Zrotation Yrotation Xrotation
		JOINT RightLeg
		{
			OFFSET -3.829005 -38.256897 -0.885003
			CHANNELS 3 Zrotation Yrotation Xrotation
			JOINT RightFoot
			{
				OFFSET 1.577377 -39.841461 -4.231180
				CHANNELS 3 Zrotation Yrotation Xrotation
				JOINT RightToe
				{
					OFFSET -2.537174 -4.814398 12.334795
					CHANNELS 3 Zrotation Yrotation Xrotation
					End Site
					{
						OFFSET 0.000000 0.000000 0.000000
					}
				}
			}
		}
	}
	JOINT Spine
	{
		OFFSET -0.253288 10.896323 -2.669631
		CHANNELS 3 Zrotation Yrotation Xrotation
		JOINT Spine1
		{
			OFFSET 0.548704 13.518043 0.109247
			CHANNELS 3 Zrotation Yrotation Xrotation
			JOINT Spine2
			{
				OFFSET 0.145701 5.292222 2.542457
				CHANNELS 3 Zrotation Yrotation Xrotation
				JOINT Neck
				{
					OFFSET -0.277840 21.387037 -4.285703
					CHANNELS 3 Zrotation Yrotation Xrotation
					JOINT Head
					{
						OFFSET 0.515184 6.496960 5.134897
						CHANNELS 3 Zrotation Yrotation Xrotation
						End Site
						{
							OFFSET 0.000000 0.000000 0.000000
						}
					}
				}
				JOINT LeftShoulder
				{
					OFFSET 7.884473 12.174932 -3.408961
					CHANNELS 3 Zrotation Yrotation Xrotation
					JOINT LeftArm
					{
						OFFSET 9.097692 3.046888 -0.886815
						CHANNELS 3 Zrotation Yrotation Xrotation
						JOINT LeftForeArm
						{
							OFFSET 25.961220 -1.277207 -2.745643
							CHANNELS 3 Zrotation Yrotation Xrotation
							JOINT LeftHand
							{
								OFFSET 24.923361 0.898606 -0.117091
								CHANNELS 3 Zrotation Yrotation Xrotation
								End Site
								{
									OFFSET 0.000000 0.000000 0.000000
								}
							}
						}
					}
				}
				JOINT RightShoulder
				{
					OFFSET -8.175920 11.883285 -3.861528
					CHANNELS 3 Zrotation Yrotation Xrotation
					JOINT RightArm
					{
						OFFSET -9.601238 3.255117 -0.914307
						CHANNELS 3 Zrotation Yrotation Xrotation
						JOINT RightForeArm
						{
							OFFSET -25.374195 -1.332924 -2.140099
							CHANNELS 3 Zrotation Yrotation Xrotation
							JOINT RightHand
							{
								OFFSET -25.529810 0.777228 -0.555919
								CHANNELS 3 Zrotation Yrotation Xrotation
								End Site
								{
									OFFSET 0.000000 0.000000 0.000000
								}
							}
						}
					}
				}
			}
		}
	}
}
MOTION
Frames: 10
Frame Time: 0.033333
-8.660186 -65.829300 91.011963 -125.024831 0.958213 88.659538 7.597520 4.951229 3.344095 -3.000293 1.564033 3.779974 0.457493 10.109334 -15.421459 nan nan nan -10.785460 -10.131441 -5.706805 3.219658 -12.714276 5.549425 6.312371 -6.311981 -0.994202 nan nan nan -5.773090 1.376552 -1.273932 6.628505 -6.163021 11.174486 1.339883 0.857445 -6.349476 -0.454371 -16.533114 19.604477 6.771335 -15.311444 9.458163 -12.396067 -9.498912 2.541753 -67.761577 -44.388050 31.912602 121.997481 -76.134928 -95.496984 -6.171077 -17.612243 -0.778673 13.535633 4.943995 -1.031579 38.158184 18.187994 -5.943557 -92.589414 50.005827 -76.319665 6.021349 9.437752 -6.176548 
-8.701497 -65.824852 91.064835 -124.971798 1.090346 88.832304 7.843506 4.994618 3.379636 -3.265840 1.491727 3.290822 0.264351 10.105448 -15.076900 nan nan nan -10.658794 -9.854756 -5.735729 3.200906 -13.355717 5.200773 6.470211 -6.124669 -0.874267 nan nan nan -6.856630 1.822292 -1.744387 7.481634 -6.269870 12.039223 2.471403 1.224012 -7.124675 -0.222907 -16.743261 19.999602 6.460427 -16.219629 8.634319 -11.044618 -10.760998 2.999964 -71.182434 -43.331801 32.652818 119.035757 -75.538669 -94.144348 -6.008412 -18.527420 -2.149943 12.663940 5.440015 -3.091859 37.956317 15.552990 -5.627861 -92.146179 50.051576 -76.745978 6.626739 9.829448 -5.391132 
-8.696890 -65.828804 90.992393 -125.043049 1.034239 88.559535 7.858370 5.033647 3.940460 -3.352476 1.252570 2.775590 0.375217 10.385843 -14.824481 nan nan nan -10.835772 -9.934501 -5.379271 3.328330 -13.335626 5.056760 6.149981 -6.009563 -0.956426 nan nan nan -7.195350 2.186565 -2.909532 7.513550 -6.349776 14.538687 2.507539 1.074790 -7.593259 0.503234 -16.738610 19.378199 6.455128 -16.562844 8.758708 -10.979599 -11.692339 3.021583 -70.568290 -44.143868 32.353407 116.785802 -75.576982 -92.141836 -6.464371 -17.430307 -0.250622 12.612798 5.919771 -3.216562 37.760140 15.523877 -5.876620 -91.772738 49.488842 -76.894541 6.680539 9.438548 -4.988631 
-8.753448 -65.773064 91.023605 -125.057022 1.092153 88.677142 7.886936 5.097017 4.005462 -3.228689 1.570241 2.491060 0.130662 9.975059 -14.755076 nan nan nan -10.732400 -9.948948 -5.244712 3.330805 -13.391168 4.629109 6.392924 -5.952557 -0.789852 nan nan nan -6.820450 1.711477 -1.937157 7.359085 -6.323186 12.282437 2.331811 1.118750 -6.942934 0.277438 -16.594993 19.917919 6.418770 -16.403715 8.967274 -10.938158 -10.407623 2.937785 -71.907800 -43.340049 33.015014 116.474310 -75.947250 -91.696469 -6.237962 -18.354035 -1.392692 12.692567 5.402247 -2.546066 38.310121 16.427908 -5.639209 -91.253812 49.652354 -76.021674 6.696280 9.685113 -4.790509 
-8.773320 -65.741180 91.020706 -125.079346 1.119247 88.566048 7.916296 5.145152 4.272810 -3.186799 1.731112 2.212838 0.052855 9.786655 -14.674167 nan nan nan -10.751720 -9.942453 -4.965698 3.365550 -13.369119 4.356806 6.459327 -5.820011 -0.634756 nan nan nan -6.796062 1.720079 -1.844031 7.369037 -6.366569 12.150596 2.347908 0.911720 -6.824403 0.373029 -16.366566 19.921753 6.262086 -16.402231 9.021402 -10.989554 -10.164820 3.006447 -72.313722 -43.133733 33.111359 115.269288 -75.969049 -90.508941 -6.266654 -18.660820 -1.487941 12.776704 5.441911 -2.315472 38.351455 16.926579 -5.500866 -90.655338 49.342131 -75.300080 6.675015 9.791486 -4.690708 
-8.737937 -65.725731 90.946251 -125.083110 0.967788 88.202052 7.911122 5.023668 4.920903 -3.397891 1.963843 1.712589 0.132375 9.622811 -14.295546 nan nan nan -11.080898 -9.922528 -4.445521 3.439566 -13.851981 4.289076 6.188163 -5.047852 -0.696295 nan nan nan -7.630530 2.316626 -2.435168 7.848861 -6.548350 14.835301 2.535890 0.891918 -7.686801 1.167562 -16.068050 19.161034 6.851714 -17.312165 7.412549 -10.460061 -9.832146 2.976112 -74.248836 -44.657453 34.837016 124.108276 -74.565922 -104.172301 -7.472654 -22.941202 -6.154091 12.324311 5.085406 -2.994442 38.508349 17.250151 -5.565606 -90.574679 48.870501 -75.722580 7.472854 9.950668 -4.268062 
-8.719196 -65.738174 90.914261 -125.128221 0.907312 88.274316 7.929615 5.094174 4.946080 -3.565014 1.924814 1.520191 0.186834 9.590749 -14.054501 nan nan nan -11.168173 -9.965838 -4.478636 3.486298 -13.898183 4.245160 6.094750 -4.969014 -0.625546 nan nan nan -7.698431 2.333324 -2.550946 7.861158 -6.535201 15.233071 2.386672 0.963082 -8.199203 1.677090 -16.321797 19.064757 7.499343 -17.718530 7.408419 -10.258658 -9.461638 3.088693 -74.767477 -44.924570 35.362466 122.790228 -74.732334 -103.447993 -7.866880 -23.128592 -6.490268 12.170806 4.844465 -2.720135 38.956140 17.454632 -5.607370 -90.554170 48.789082 -75.691811 7.607377 9.884306 -4.136957 
-8.720273 -65.759789 90.880714 -125.206130 0.904769 88.286152 7.986297 5.132515 5.024642 -3.679401 1.924317 1.396664 0.194261 9.572653 -14.013642 nan nan nan -11.197284 -9.959910 -4.430268 3.527027 -13.888798 4.152933 6.128162 -5.009358 -0.571945 nan nan nan -7.644613 2.305375 -2.596307 7.818966 -6.464376 15.214994 2.299653 0.918491 -8.142547 1.836221 -16.434810 18.848369 7.361339 -17.827978 7.652381 -10.111539 -9.300704 3.030598 -75.054717 -44.942648 35.617023 121.806425 -74.825068 -102.396319 -8.141633 -22.894746 -6.448365 12.111632 4.734840 -2.683222 39.217372 17.656085 -5.408354 -90.404272 48.678095 -75.458650 7.654833 9.750730 -4.253986 
-8.720642 -65.780037 90.847542 -125.302245 0.938947 88.291282 8.073995 5.185840 5.108929 -3.750469 2.021862 1.282584 0.183376 9.477353 -14.040838 nan nan nan -11.176369 -9.919013 -4.421490 3.536348 -13.875942 4.129259 6.157577 -4.987465 -0.622493 nan nan nan -7.554166 2.279978 -2.614716 7.786076 -6.407255 15.145036 2.231609 0.868934 -8.042841 2.047439 -16.430961 18.634423 7.141211 -18.004219 7.849985 -9.958055 -9.146229 2.974274 -75.481743 -44.881228 35.882777 120.666497 -74.866822 -101.068098 -8.475859 -22.843863 -6.460864 12.039104 4.662767 -2.711072 39.513654 17.810130 -5.105160 -90.281427 48.505135 -75.099473 7.678698 9.686612 -4.459939 
-8.734243 -65.777901 90.831108 -125.415358 0.978024 88.147192 8.181744 5.345805 5.380591 -3.810380 1.994924 1.134790 0.200142 9.332690 -14.016160 nan nan nan -11.201220 -9.900314 -4.294450 3.563664 -14.029907 4.189961 6.112832 -4.710974 -0.731166 nan nan nan -7.586263 2.249075 -2.571358 7.829283 -6.452465 15.594207 2.404486 0.971555 -8.629286 1.037185 -16.751341 20.586633 6.854764 -18.117864 5.474026 -9.995533 -9.113682 3.315877 -75.769522 -44.754970 35.503478 120.244946 -75.128770 -100.695083 -8.863203 -23.068787 -5.890504 11.520679 4.935138 -2.180720 39.911168 17.753144 -5.564299 -90.351853 48.515354 -74.790511 7.846111 9.866536 -4.319944 
